<?xml version="1.0" encoding="utf-8"?>
<!-- Generator: Adobe Illustrator 16.0.0, SVG Export Plug-In . SVG Version: 6.00 Build 0)  -->
<!DOCTYPE svg PUBLIC "-//W3C//DTD SVG 1.1//EN" "http://www.w3.org/Graphics/SVG/1.1/DTD/svg11.dtd">
<svg version="1.1" id="Layer_1" xmlns="http://www.w3.org/2000/svg" xmlns:xlink="http://www.w3.org/1999/xlink" x="0px" y="0px"
	 width="234px" height="198px" viewBox="0 0 234 198" enable-background="new 0 0 234 198" xml:space="preserve">
<g>
	<polygon points="117,82.791 57.287,82.791 56.916,90.148 59.812,100.609 52.916,97.9 49.168,102.609 49.168,112.648 
		52.168,118.148 55.492,134.898 61.814,140.396 65.555,140.396 68.34,156.739 71.1,162.82 94.738,192.936 100.529,195.816 
		117,195.816 133.471,195.816 139.262,192.936 162.9,162.82 165.66,156.739 168.445,140.396 172.186,140.396 178.508,134.898 
		181.832,118.148 184.832,112.648 184.832,102.609 181.084,97.9 174.188,100.609 177.084,90.148 176.713,82.791 	"/>
	<g>
		<path fill="#00FF00" d="M117.001,115.633c1.617,0,2.33,1.75,2.33,1.75l5.235,10.732c0.724,1.205,2.183,2.059,3.871,2.055
			l34.931-5.203c1.672-0.25,3.336-0.984,3.702-2.146l2.523-14.311c0.674-2.121-0.723-3.92-3.145-3.914H117H67.552
			c-2.424-0.006-3.818,1.793-3.146,3.914l2.523,14.311c0.369,1.162,2.031,1.896,3.703,2.146l34.932,5.203
			c1.689,0.004,3.148-0.85,3.871-2.055l5.236-10.732C114.671,117.383,115.382,115.633,117.001,115.633z"/>
		<g>
			<polygon fill="#000100" points="74.884,123.607 71.79,106.825 70.14,106.825 73.146,123.355 			"/>
			<polygon fill="#000100" points="81.374,124.544 77.944,106.825 74.333,106.825 77.563,123.994 			"/>
		</g>
	</g>
	<g>
		<polygon points="176.713,82.791 231.908,101.111 2.092,101.111 57.285,82.791 78.018,14.034 153.391,4.202 		"/>
		<polygon fill="#FFFFFF" points="67.045,82.791 168.705,82.791 166.426,75.218 		"/>
	</g>
</g>
</svg>
